<svg width="48" height="48" viewBox="0 0 48 48" fill="none" xmlns="http://www.w3.org/2000/svg">
  <!-- Among Us Character Body -->
  <ellipse cx="24" cy="32" rx="12" ry="8" fill="#8B5CF6"/>
  
  <!-- Main Body -->
  <path d="M12 20c0-6.627 5.373-12 12-12s12 5.373 12 12v16c0 2.209-1.791 4-4 4H16c-2.209 0-4-1.791-4-4V20z" fill="#8B5CF6"/>
  
  <!-- Visor/Glass -->
  <ellipse cx="24" cy="16" rx="8" ry="6" fill="#6EE7B7"/>
  
  <!-- Left Eye -->
  <circle cx="20" cy="15" r="1.5" fill="#1F2937" class="eye-left"/>
  
  <!-- Right Eye -->
  <circle cx="28" cy="15" r="1.5" fill="#1F2937" class="eye-right"/>
  
  <!-- Visor Highlight -->
  <ellipse cx="21" cy="13" rx="2" ry="1.5" fill="#FFFFFF" opacity="0.6"/>
  
  <!-- Backpack -->
  <rect x="32" y="14" width="4" height="8" rx="2" fill="#7C3AED"/>
  
  <!-- Legs -->
  <ellipse cx="19" cy="39" rx="3" ry="2" fill="#6B46C1"/>
  <ellipse cx="29" cy="39" rx="3" ry="2" fill="#6B46C1"/>
  
  <!-- Shadow -->
  <ellipse cx="24" cy="42" rx="8" ry="2" fill="#000000" opacity="0.2"/>
</svg>